Coordinates
version=1
nRows=8
nColumns=42
inDegrees=yes

Units are S.I. units (second, meters, Newtons, ...)
If the header above contains a line with 'inDegrees', this indicates whether rotational values are in degrees (yes) or radians (no).

endheader
time	pelvis_tilt	pelvis_list	pelvis_rotation	pelvis_tx	pelvis_ty	pelvis_tz	hip_flexion_r	hip_adduction_r	hip_rotation_r	knee_angle_r	knee_adduction_r	knee_angle_r_beta	ankle_angle_r	subtalar_angle_r	mtp_angle_r	hip_flexion_l	hip_adduction_l	hip_rotation_l	knee_angle_l	knee_adduction_l	knee_angle_l_beta	ankle_angle_l	subtalar_angle_l	mtp_angle_l	lumbar_extension	lumbar_bending	lumbar_rotation	arm_flex_r	arm_add_r	arm_rot_r	elbow_flex_r	pro_sup_r	wrist_flex_r	wrist_dev_r	arm_flex_l	arm_add_l	arm_rot_l	elbow_flex_l	pro_sup_l	wrist_flex_l	wrist_dev_l
      2.15000000	     20.78791939	     -1.37633528	      4.15635488	      0.42459706	      0.94445495	     -0.34706823	    -10.21330508	      5.55884536	    -28.47845334	     19.02837016	     -9.19294576	      0.33210771	     12.60496587	     37.68431064	     -7.51978921	    -25.26050850	     -0.04601484	     -6.56033254	     43.56494859	      5.43114075	      0.76035179	     11.27788861	     -8.85347098	     -7.51978921	    -35.92275501	     -0.78946886	      1.34253432	      6.36435162	     -8.66581203	    -36.90261612	     24.04049448	     90.00000001	      0.00000000	      0.00000000	      1.40561184	    -20.48305971	      7.56763247	     71.13190784	     90.00000001	      0.00000000	      0.00000000
      2.16000000	     20.59250037	     -1.50934913	      4.30513108	      0.42931667	      0.94453963	     -0.34799428	    -10.36435571	      5.74342473	    -28.31152281	     18.92231236	     -9.19854955	      0.33025665	     12.74989899	     37.50786061	     -7.51914374	    -23.68780011	     -0.82087314	     -6.85562033	     46.00000565	      5.56133687	      0.80285155	     10.91599391	    -10.69996512	     -7.51914374	    -35.74296645	     -0.65850568	      1.46556591	      6.77844740	     -8.79416055	    -35.83862122	     24.57276365	     90.00000001	      0.00000000	      0.00000000	      1.56923609	    -20.44334536	      7.53022452	     71.32044914	     90.00000001	      0.00000000	      0.00000000
      2.17000000	     20.55966835	     -1.40681197	      4.56437296	      0.43413083	      0.94491447	     -0.34959586	    -10.85629289	      5.56798628	    -27.98651090	     18.72190021	     -8.77887068	      0.32675880	     13.05078762	     37.35281650	     -7.51881040	    -22.33363426	     -1.20726316	     -7.08457201	     47.95465344	      5.19394313	      0.83696659	     10.99227019	    -11.91130155	     -7.51881040	    -35.74220628	     -0.62643392	      1.27798957	      7.31032555	     -8.88179643	    -35.24855259	     25.14367978	     90.00000001	      0.00000000	      0.00000000	      1.64738167	    -20.45242695	      7.59276304	     71.57538296	     90.00000001	      0.00000000	      0.00000000
      2.18000000	     20.46780894	     -1.44005123	      4.73035080	      0.43885031	      0.94512994	     -0.35066908	    -11.17778454	      5.63174153	    -27.65364306	     18.59496340	     -8.62243223	      0.32454334	     13.30884306	     37.10135119	     -7.51849300	    -20.84824623	     -1.76592709	     -7.51698157	     49.74420600	      4.78766089	      0.86820018	     11.13150309	    -13.36818748	     -7.51849300	    -35.68359610	     -0.58241035	      1.31790068	      7.81152513	     -8.92274856	    -34.55077755	     25.71355864	     90.00000001	      0.00000000	      0.00000000	      1.78684358	    -20.45633789	      7.62085913	     71.80950750	     90.00000001	      0.00000000	      0.00000000
      2.19000000	     20.34587023	     -1.48054687	      4.86897479	      0.44349415	      0.94529061	     -0.35182499	    -11.44826805	      5.69716982	    -27.27130649	     18.47823006	     -8.51083800	      0.32250595	     13.56281788	     36.77950621	     -7.51817192	    -19.31031821	     -2.31150306	     -7.96639583	     51.22352511	      4.34122681	      0.89401917	     11.34549397	    -14.71348970	     -7.51817192	    -35.60961489	     -0.52789025	      1.36781641	      8.32383506	     -9.01629485	    -33.71704029	     26.36308993	     90.00000001	      0.00000000	      0.00000000	      1.93394982	    -20.43610022	      7.67010870	     71.99119533	     90.00000001	      0.00000000	      0.00000000
      2.20000000	     20.21191183	     -1.57682506	      4.94437204	      0.44799118	      0.94537950	     -0.35278480	    -11.64668502	      5.85821886	    -26.77753954	     18.44003949	     -8.48844993	      0.32183940	     13.76178583	     36.07726613	     -7.51630200	    -17.73577127	     -2.96431804	     -8.21520634	     52.45493914	      4.18282495	      0.91551140	     11.43523779	    -16.07635171	     -7.51630200	    -35.54421836	     -0.46154465	      1.53961089	      7.95310165	     -9.58143503	    -28.10845169	     28.06662399	     90.00000001	      0.00000000	      0.00000000	      2.15564858	    -20.38226911	      7.71421574	     72.05991708	     90.00000001	      0.00000000	      0.00000000
      2.21000000	     20.26569031	     -1.43674890	      5.03053228	      0.45264107	      0.94591573	     -0.35410668	    -12.18087530	      5.67984284	    -26.45679026	     18.26696699	     -8.26974318	      0.31881872	     13.99723382	     35.86241068	     -7.51609238	    -16.47613310	     -3.20071114	     -8.58773722	     53.01352856	      3.55190364	      0.92526062	     12.05273915	    -16.57959381	     -7.51609238	    -35.68022134	     -0.58343338	      1.54413292	      8.62904705	     -9.63240670	    -27.87586282	     28.60508821	     90.00000001	      0.00000000	      0.00000000	      2.31403889	    -20.37580520	      7.77976541	     72.23801388	     90.00000001	      0.00000000	      0.00000000
      2.22000000	     20.30789718	     -1.30127768	      4.96147912	      0.45709353	      0.94657352	     -0.35514946	    -12.57072358	      5.48444486	    -26.25766920	     18.30137934	     -8.22054164	      0.31941933	     14.05514186	     35.42290116	     -7.51595153	    -15.29551306	     -3.46433732	     -8.72340929	     53.04331605	      3.36117517	      0.92578051	     12.30332084	    -16.44157263	     -7.51595153	    -35.84388845	     -0.78394567	      1.68780191	      9.38862875	     -9.67443032	    -27.68842136	     29.06525886	     90.00000001	      0.00000000	      0.00000000	      2.56621822	    -20.31820399	      7.80692745	     72.31652600	     90.00000001	      0.00000000	      0.00000000
